HIERARCHY
ROOT hip
{
  OFFSET 0 90.174 2.4664
  CHANNELS 6 Xposition Yposition Zposition Zrotation Xrotation Yrotation
  JOINT abdomen
  {
    OFFSET 0 -1.186 -1.5018
    CHANNELS 6 Xposition Yposition Zposition Zrotation Xrotation Yrotation
    JOINT abdomen2
    {
      OFFSET 0 9.964 0.2134
      CHANNELS 6 Xposition Yposition Zposition Zrotation Xrotation Yrotation
      JOINT chest
      {
        OFFSET 0 13.134 -3.2573
        CHANNELS 6 Xposition Yposition Zposition Zrotation Xrotation Yrotation
        JOINT neck
        {
          OFFSET 0 20.686 -1.6905
          CHANNELS 6 Xposition Yposition Zposition Zrotation Xrotation Yrotation
          JOINT head
          {
            OFFSET 0 7.238 -0.1237
            CHANNELS 6 Xposition Yposition Zposition Zrotation Xrotation Yrotation
            End Site
            {
              OFFSET 0 0 0
            }
          }
        }
        JOINT lCollar
        {
          OFFSET 1.7069 20.075 5.0056
          CHANNELS 6 Xposition Yposition Zposition Zrotation Xrotation Yrotation
          JOINT lShldr
          {
            OFFSET 13.6458 -0.047 -4.849
            CHANNELS 6 Xposition Yposition Zposition Zrotation Xrotation Yrotation
            JOINT lForeArm
            {
              OFFSET 28.3255 -0.9759 2.2888
              CHANNELS 6 Xposition Yposition Zposition Zrotation Xrotation Yrotation
              JOINT lHand
              {
                OFFSET 22.1583 -0.53 10.8316
                CHANNELS 6 Xposition Yposition Zposition Zrotation Xrotation Yrotation
                JOINT lThumb1
                {
                  OFFSET 0.786 0.112 2.5817
                  CHANNELS 6 Xposition Yposition Zposition Zrotation Xrotation Yrotation
                  JOINT lThumb2
                  {
                    OFFSET 0.3601 -0.878 4.2331
                    CHANNELS 6 Xposition Yposition Zposition Zrotation Xrotation Yrotation
                    JOINT lThumb2_End
                    {
                      OFFSET 1.8127 -1.216 2.2227
                      CHANNELS 6 Xposition Yposition Zposition Zrotation Xrotation Yrotation
                      End Site
                      {
                        OFFSET 0.0181 -0.0122 0.0222
                      }
                    }
                  }
                }
                JOINT lCarpal1
                {
                  OFFSET 0.9571 1.114 1.7695
                  CHANNELS 6 Xposition Yposition Zposition Zrotation Xrotation Yrotation
                  JOINT lIndex1
                  {
                    OFFSET 4.1246 0.487 4.1451
                    CHANNELS 6 Xposition Yposition Zposition Zrotation Xrotation Yrotation
                    JOINT lIndex2
                    {
                      OFFSET 3.4052 -1.454 2.7682
                      CHANNELS 6 Xposition Yposition Zposition Zrotation Xrotation Yrotation
                      JOINT lIndex2_End
                      {
                        OFFSET 1.4531 -1.795 1.2713
                        CHANNELS 6 Xposition Yposition Zposition Zrotation Xrotation Yrotation
                        End Site
                        {
                          OFFSET 0.0145 -0.0179 0.0127
                        }
                      }
                    }
                  }
                  JOINT lMid1
                  {
                    OFFSET 5.6954 0.21 2.1184
                    CHANNELS 6 Xposition Yposition Zposition Zrotation Xrotation Yrotation
                    JOINT lMid2
                    {
                      OFFSET 3.9766 -1.54 2.3863
                      CHANNELS 6 Xposition Yposition Zposition Zrotation Xrotation Yrotation
                      JOINT lMid2_End
                      {
                        OFFSET 1.4042 -1.926 1.125
                        CHANNELS 6 Xposition Yposition Zposition Zrotation Xrotation Yrotation
                        End Site
                        {
                          OFFSET 0.014 -0.0193 0.0113
                        }
                      }
                    }
                  }
                }
                JOINT lCarpal2
                {
                  OFFSET 2.0956 0.66 -0.3894
                  CHANNELS 6 Xposition Yposition Zposition Zrotation Xrotation Yrotation
                  JOINT lRing1
                  {
                    OFFSET 5.0395 -0.09 2.4971
                    CHANNELS 6 Xposition Yposition Zposition Zrotation Xrotation Yrotation
                    JOINT lRing2
                    {
                      OFFSET 3.7921 -1.552 1.4806
                      CHANNELS 6 Xposition Yposition Zposition Zrotation Xrotation Yrotation
                      JOINT lRing2_End
                      {
                        OFFSET 1.4655 -1.808 0.9609
                        CHANNELS 6 Xposition Yposition Zposition Zrotation Xrotation Yrotation
                        End Site
                        {
                          OFFSET 0.0147 -0.0181 0.0096
                        }
                      }
                    }
                  }
                  JOINT lPinky1
                  {
                    OFFSET 4.9141 -1.269 0.3591
                    CHANNELS 6 Xposition Yposition Zposition Zrotation Xrotation Yrotation
                    JOINT lPinky2
                    {
                      OFFSET 3.1477 -1.685 0.8462
                      CHANNELS 6 Xposition Yposition Zposition Zrotation Xrotation Yrotation
                      JOINT lPinky2_End
                      {
                        OFFSET 0.8055 -1.585 0.7955
                        CHANNELS 6 Xposition Yposition Zposition Zrotation Xrotation Yrotation
                        End Site
                        {
                          OFFSET 0.0081 -0.0158 0.008
                        }
                      }
                    }
                  }
                }
              }
            }
          }
        }
        JOINT rCollar
        {
          OFFSET -1.7069 20.075 5.0056
          CHANNELS 6 Xposition Yposition Zposition Zrotation Xrotation Yrotation
          JOINT rShldr
          {
            OFFSET -13.6458 -0.047 -4.849
            CHANNELS 6 Xposition Yposition Zposition Zrotation Xrotation Yrotation
            JOINT rForeArm
            {
              OFFSET -28.3255 -0.9759 2.2888
              CHANNELS 6 Xposition Yposition Zposition Zrotation Xrotation Yrotation
              JOINT rHand
              {
                OFFSET -22.1583 -0.53 10.8316
                CHANNELS 6 Xposition Yposition Zposition Zrotation Xrotation Yrotation
                JOINT rThumb1
                {
                  OFFSET -0.786 0.112 2.5817
                  CHANNELS 6 Xposition Yposition Zposition Zrotation Xrotation Yrotation
                  JOINT rThumb2
                  {
                    OFFSET -0.3601 -0.878 4.2331
                    CHANNELS 6 Xposition Yposition Zposition Zrotation Xrotation Yrotation
                    JOINT rThumb2_End
                    {
                      OFFSET -1.8127 -1.216 2.2227
                      CHANNELS 6 Xposition Yposition Zposition Zrotation Xrotation Yrotation
                      End Site
                      {
                        OFFSET -0.0181 -0.0122 0.0222
                      }
                    }
                  }
                }
                JOINT rCarpal1
                {
                  OFFSET -0.9571 1.114 1.7695
                  CHANNELS 6 Xposition Yposition Zposition Zrotation Xrotation Yrotation
                  JOINT rIndex1
                  {
                    OFFSET -4.1246 0.487 4.1451
                    CHANNELS 6 Xposition Yposition Zposition Zrotation Xrotation Yrotation
                    JOINT rIndex2
                    {
                      OFFSET -3.4052 -1.454 2.7682
                      CHANNELS 6 Xposition Yposition Zposition Zrotation Xrotation Yrotation
                      JOINT rIndex2_End
                      {
                        OFFSET -1.4531 -1.795 1.2713
                        CHANNELS 6 Xposition Yposition Zposition Zrotation Xrotation Yrotation
                        End Site
                        {
                          OFFSET -0.0145 -0.018 0.0127
                        }
                      }
                    }
                  }
                  JOINT rMid1
                  {
                    OFFSET -5.6954 0.21 2.1184
                    CHANNELS 6 Xposition Yposition Zposition Zrotation Xrotation Yrotation
                    JOINT rMid2
                    {
                      OFFSET -3.9766 -1.54 2.3863
                      CHANNELS 6 Xposition Yposition Zposition Zrotation Xrotation Yrotation
                      JOINT rMid2_End
                      {
                        OFFSET -1.4042 -1.926 1.125
                        CHANNELS 6 Xposition Yposition Zposition Zrotation Xrotation Yrotation
                        End Site
                        {
                          OFFSET -0.014 -0.0193 0.0113
                        }
                      }
                    }
                  }
                }
                JOINT rCarpal2
                {
                  OFFSET -2.0956 0.66 -0.3894
                  CHANNELS 6 Xposition Yposition Zposition Zrotation Xrotation Yrotation
                  JOINT rRing1
                  {
                    OFFSET -5.0395 -0.09 2.4971
                    CHANNELS 6 Xposition Yposition Zposition Zrotation Xrotation Yrotation
                    JOINT rRing2
                    {
                      OFFSET -3.7921 -1.552 1.4806
                      CHANNELS 6 Xposition Yposition Zposition Zrotation Xrotation Yrotation
                      JOINT rRing2_End
                      {
                        OFFSET -1.4655 -1.808 0.9609
                        CHANNELS 6 Xposition Yposition Zposition Zrotation Xrotation Yrotation
                        End Site
                        {
                          OFFSET -0.0147 -0.0181 0.0096
                        }
                      }
                    }
                  }
                  JOINT rPinky1
                  {
                    OFFSET -4.9141 -1.269 0.3592
                    CHANNELS 6 Xposition Yposition Zposition Zrotation Xrotation Yrotation
                    JOINT rPinky2
                    {
                      OFFSET -3.1477 -1.685 0.8462
                      CHANNELS 6 Xposition Yposition Zposition Zrotation Xrotation Yrotation
                      JOINT rPinky2_End
                      {
                        OFFSET -0.8055 -1.585 0.7955
                        CHANNELS 6 Xposition Yposition Zposition Zrotation Xrotation Yrotation
                        End Site
                        {
                          OFFSET -0.0081 -0.0158 0.008
                        }
                      }
                    }
                  }
                }
              }
            }
          }
        }
      }
    }
  }
  JOINT lThigh
  {
    OFFSET 8.367 -8.2066 0.5982
    CHANNELS 6 Xposition Yposition Zposition Zrotation Xrotation Yrotation
    JOINT lShin
    {
      OFFSET 2.1923 -43.463 -0.4932
      CHANNELS 6 Xposition Yposition Zposition Zrotation Xrotation Yrotation
      JOINT lFoot
      {
        OFFSET 0.7333 -45.8593 -2.6451
        CHANNELS 6 Xposition Yposition Zposition Zrotation Xrotation Yrotation
        End Site
        {
          OFFSET 2.6618 -4.2699 12.3931
        }
      }
    }
  }
  JOINT rThigh
  {
    OFFSET -8.367 -8.2066 0.5982
    CHANNELS 6 Xposition Yposition Zposition Zrotation Xrotation Yrotation
    JOINT rShin
    {
      OFFSET -2.1923 -43.463 -0.4931
      CHANNELS 6 Xposition Yposition Zposition Zrotation Xrotation Yrotation
      JOINT rFoot
      {
        OFFSET -0.7333 -45.8593 -2.6451
        CHANNELS 6 Xposition Yposition Zposition Zrotation Xrotation Yrotation
        End Site
        {
          OFFSET -2.6618 -4.2699 12.3931
        }
      }
    }
  }
}
MOTION
Frames:	4
Frame Time:	0.0333333
0 90.174 2.4664 0 0 -0 0 -1.186 -1.5018 0 0 -0 0 9.964 0.2134 0 0 -0 0 13.134 -3.2573 0 0 -0 0 20.686 -1.6905 0 0 -0 0 7.238 -0.1237 0 0 -0 1.7069 20.075 5.0056 0 0 -0 13.6458 -0.047 -4.849 1.66051 0.0835086 5.75766 28.3255 -0.9759 2.2888 -0.0175111 0.895433 15.7816 22.1583 -0.53 10.8316 7.95139e-016 -1.98785e-016 -0 0.786 0.112 2.5817 5.46658e-016 -3.97569e-016 -0 0.3601 -0.878 4.2331 5.96354e-016 0 -0 1.8127 -1.216 2.2227 3.97569e-016 1.98785e-016 9.54166e-015 0.9571 1.114 1.7695 1.49089e-016 -3.97569e-016 -0 4.1246 0.487 4.1451 6.4605e-016 0 3.18055e-015 3.4052 -1.454 2.7682 5.96354e-016 0 3.18055e-015 1.4531 -1.795 1.2713 8.94531e-016 -1.98785e-016 6.36111e-015 5.6954 0.21 2.1184 6.4605e-016 0 3.18055e-015 3.9766 -1.54 2.3863 5.96354e-016 0 3.18055e-015 1.4042 -1.926 1.125 8.94531e-016 -1.98785e-016 6.36111e-015 2.0956 0.66 -0.3894 1.49089e-016 -3.97569e-016 -0 5.0395 -0.09 2.4971 6.4605e-016 0 3.18055e-015 3.7921 -1.552 1.4806 5.96354e-016 0 3.18055e-015 1.4655 -1.808 0.9609 8.94531e-016 -1.98785e-016 6.36111e-015 4.9141 -1.269 0.3591 6.4605e-016 0 3.18055e-015 3.1477 -1.685 0.8462 5.96354e-016 0 3.18055e-015 0.8055 -1.585 0.7955 8.94531e-016 -1.98785e-016 6.36111e-015 -1.7069 20.075 5.0056 0 0 -0 -13.6458 -0.047 -4.849 -1.4496 0.0636048 -5.0245 -28.3255 -0.9759 2.2888 -1.74811 1.20616 -16.8394 -22.1583 -0.53 10.8316 -1.19271e-015 1.98785e-016 -3.18055e-015 -0.786 0.112 2.5817 -3.97569e-016 1.98785e-016 -3.18055e-015 -0.3601 -0.878 4.2331 -2.98177e-016 1.98785e-016 -3.18055e-015 -1.8127 -1.216 2.2227 -2.98177e-016 3.97569e-016 -0 -0.9571 1.114 1.7695 4.96962e-016 0 -6.36111e-015 -4.1246 0.487 4.1451 -9.93923e-017 3.97569e-016 -0 -3.4052 -1.454 2.7682 -8.94531e-016 5.96354e-016 -0 -1.4531 -1.795 1.2713 -3.97569e-016 3.97569e-016 -0 -5.6954 0.21 2.1184 -9.93923e-017 3.97569e-016 -0 -3.9766 -1.54 2.3863 -8.94531e-016 5.96354e-016 -0 -1.4042 -1.926 1.125 -3.97569e-016 3.97569e-016 -0 -2.0956 0.66 -0.3894 4.96962e-016 0 -6.36111e-015 -5.0395 -0.09 2.4971 -9.93923e-017 3.97569e-016 -0 -3.7921 -1.552 1.4806 -8.94531e-016 5.96354e-016 -0 -1.4655 -1.808 0.9609 -3.97569e-016 3.97569e-016 -0 -4.9141 -1.269 0.3592 -9.93923e-017 3.97569e-016 -0 -3.1477 -1.685 0.8462 -8.94531e-016 5.96354e-016 -0 -0.8055 -1.585 0.7955 -3.97569e-016 3.97569e-016 -0 8.367 -8.2066 0.5982 -4.66115 -1.03232 0.120763 2.1923 -43.463 -0.4932 0.00990601 1.55097 0.177175 0.7333 -45.8593 -2.6451 4.65196 -0.54114 -0.255042 -8.367 -8.2066 0.5982 4.66115 -1.03222 -0.120763 -2.1923 -43.463 -0.4931 -0.00990459 1.5509 -0.177176 -0.7333 -45.8593 -2.6451 -4.65196 -0.541171 0.255041 
-23.0248 89.4968 -2.65261 -0.690309 -19.9006 77.5585 -7.10543e-015 -1.186 -1.5018 -0.0281903 0.444644 -0.0914654 0 9.964 0.2134 -0.0556781 0.889328 -0.182684 7.10543e-015 13.134 -3.2573 -0.0556702 0.889333 -0.18271 -1.42109e-014 20.686 -1.6905 0.00033411 -0.442584 6.74928e-005 7.10543e-015 7.238 -0.1237 -2.89877e-006 -0.190564 1.14388e-005 1.7069 20.075 5.0056 -3.41165 0.16715 10.1978 13.6458 -0.047 -4.849 0.494254 -37.9536 14.3451 28.3255 -0.9759 2.2888 -23.1016 11.1711 -15.8574 22.1583 -0.53 10.8316 -7.69506 1.44488 -3.00094 0.786 0.112 2.5817 -3.18055e-015 -1.39149e-015 -2.38542e-015 0.3601 -0.878 4.2331 7.44847e-032 1.78906e-015 -2.38542e-015 1.8127 -1.216 2.2227 9.65542e-033 3.97569e-016 -1.39149e-015 0.9571 1.114 1.7695 -3.18055e-015 -4.57205e-015 -5.56597e-015 4.1246 0.487 4.1451 -6.84155e-031 6.16232e-015 6.36111e-015 3.4052 -1.454 2.7682 -1.24141e-032 3.97569e-016 1.78906e-015 1.4531 -1.795 1.2713 -3.18055e-015 1.98785e-016 -1.19271e-015 5.6954 0.21 2.1184 -6.84155e-031 6.16232e-015 6.36111e-015 3.9766 -1.54 2.3863 -1.24141e-032 3.97569e-016 1.78906e-015 1.4042 -1.926 1.125 -3.18055e-015 1.98785e-016 -1.19271e-015 2.0956 0.66 -0.3894 -3.18055e-015 -4.57205e-015 -5.56597e-015 5.0395 -0.09 2.4971 -6.84155e-031 6.16232e-015 6.36111e-015 3.7921 -1.552 1.4806 -1.24141e-032 3.97569e-016 1.78906e-015 1.4655 -1.808 0.9609 -3.18055e-015 1.98785e-016 -1.19271e-015 4.9141 -1.269 0.3591 -6.84155e-031 6.16232e-015 6.36111e-015 3.1477 -1.685 0.8462 -1.24141e-032 3.97569e-016 1.78906e-015 0.8055 -1.585 0.7955 -3.18055e-015 1.98785e-016 -1.19271e-015 -1.7069 20.075 5.0056 3.66844 0.0828676 -5.67709 -13.6458 -0.047 -4.849 40.2451 17.9002 -10.5976 -28.3255 -0.9759 2.2888 21.089 9.8839 14.623 -22.1583 -0.53 10.8316 4.80832 1.93239 0.0472192 -0.786 0.112 2.5817 6.89673e-033 -3.97569e-016 9.93923e-016 -0.3601 -0.878 4.2331 4.34494e-032 -1.19271e-015 2.08724e-015 -1.8127 -1.216 2.2227 3.44836e-034 -1.98785e-016 9.93923e-017 -0.9571 1.114 1.7695 1.79315e-032 -3.97569e-016 2.5842e-015 -4.1246 0.487 4.1451 -3.18055e-015 -8.15017e-015 1.12313e-014 -3.4052 -1.454 2.7682 6.36111e-015 2.38542e-015 -3.57812e-015 -1.4531 -1.795 1.2713 9.54166e-015 2.18663e-015 -2.08724e-015 -5.6954 0.21 2.1184 -3.18055e-015 -8.15017e-015 1.12313e-014 -3.9766 -1.54 2.3863 6.36111e-015 2.38542e-015 -3.57812e-015 -1.4042 -1.926 1.125 9.54166e-015 2.18663e-015 -2.08724e-015 -2.0956 0.66 -0.3894 1.79315e-032 -3.97569e-016 2.5842e-015 -5.0395 -0.09 2.4971 -3.18055e-015 -8.15017e-015 1.12313e-014 -3.7921 -1.552 1.4806 6.36111e-015 2.38542e-015 -3.57812e-015 -1.4655 -1.808 0.9609 9.54166e-015 2.18663e-015 -2.08724e-015 -4.9141 -1.269 0.3592 -3.18055e-015 -8.15017e-015 1.12313e-014 -3.1477 -1.685 0.8462 6.36111e-015 2.38542e-015 -3.57812e-015 -0.8055 -1.585 0.7955 9.54166e-015 2.18663e-015 -2.08724e-015 8.367 -8.2066 0.5982 1.37104 2.01124 3.64271 2.1923 -43.463 -0.4932 -2.53813 4.04019 0.470111 0.7333 -45.8593 -2.6451 7.45387 -0.959517 -2.05381 -8.367 -8.2066 0.5982 -0.890742 -3.63009 -6.817 -2.1923 -43.463 -0.4931 4.53012 15.5491 -1.85288 -0.7333 -45.8593 -2.6451 -10.8614 -6.69939 4.49848 
-34.8966 89.9897 1.28284 2.03639 6.63211 90.652 1.77636e-015 -1.186 -1.5018 -0.0480348 0.652757 -0.130865 0 9.964 0.2134 -0.0945844 1.30562 -0.261202 0 13.134 -3.2573 -0.0945856 1.30562 -0.261198 -1.77636e-015 20.686 -1.6905 -0.000119094 -0.880865 -1.42005e-005 0 7.238 -0.1237 -3.15869e-007 -0.275521 -4.43492e-006 1.7069 20.075 5.0056 -4.96618 0.238327 14.7869 13.6458 -0.047 -4.849 5.86121 -54.4103 22.552 28.3255 -0.9759 2.2888 -31.0001 13.0851 -30.2301 22.1583 -0.53 10.8316 -11.1709 1.97799 -4.27445 0.786 0.112 2.5817 -2.62157e-007 -2.83709e-006 -6.60647e-006 0.3601 -0.878 4.2331 2.59015e-006 -1.59123e-006 -1.42616e-006 1.8127 -1.216 2.2227 2.59015e-006 -1.59123e-006 -1.42616e-006 0.9571 1.114 1.7695 -3.18055e-015 2.38542e-015 -1.59028e-015 4.1246 0.487 4.1451 -2.62157e-007 -2.83709e-006 -6.60647e-006 3.4052 -1.454 2.7682 2.59015e-006 -1.59123e-006 -1.42616e-006 1.4531 -1.795 1.2713 2.59015e-006 -1.59123e-006 -1.42616e-006 5.6954 0.21 2.1184 -2.62157e-007 -2.83709e-006 -6.60647e-006 3.9766 -1.54 2.3863 2.59015e-006 -1.59123e-006 -1.42616e-006 1.4042 -1.926 1.125 2.59015e-006 -1.59123e-006 -1.42616e-006 2.0956 0.66 -0.3894 -3.18055e-015 2.38542e-015 -1.59028e-015 5.0395 -0.09 2.4971 -2.62157e-007 -2.83709e-006 -6.60647e-006 3.7921 -1.552 1.4806 2.59015e-006 -1.59123e-006 -1.42616e-006 1.4655 -1.808 0.9609 2.59015e-006 -1.59123e-006 -1.42616e-006 4.9141 -1.269 0.3591 -2.62157e-007 -2.83709e-006 -6.60647e-006 3.1477 -1.685 0.8462 2.59015e-006 -1.59123e-006 -1.42616e-006 0.8055 -1.585 0.7955 2.59015e-006 -1.59123e-006 -1.42616e-006 -1.7069 20.075 5.0056 5.32457 0.119725 -8.23186 -13.6458 -0.047 -4.849 60.3019 25.7801 -13.582 -28.3255 -0.9759 2.2888 29.1444 11.3517 28.8095 -22.1583 -0.53 10.8316 6.97356 2.80186 0.0154977 -0.786 0.112 2.5817 3.18055e-015 0 -0 -0.3601 -0.878 4.2331 0 0 -0 -1.8127 -1.216 2.2227 -0 -3.18055e-015 -0 -0.9571 1.114 1.7695 3.18055e-015 0 1.59028e-015 -4.1246 0.487 4.1451 3.18055e-015 0 -1.59028e-015 -3.4052 -1.454 2.7682 -0 -3.18055e-015 -0 -1.4531 -1.795 1.2713 -0 -3.18055e-015 -0 -5.6954 0.21 2.1184 3.18055e-015 0 -1.59028e-015 -3.9766 -1.54 2.3863 -0 -3.18055e-015 -0 -1.4042 -1.926 1.125 -0 -3.18055e-015 -0 -2.0956 0.66 -0.3894 3.18055e-015 0 1.59028e-015 -5.0395 -0.09 2.4971 3.18055e-015 0 -1.59028e-015 -3.7921 -1.552 1.4806 -0 -3.18055e-015 -0 -1.4655 -1.808 0.9609 -0 -3.18055e-015 -0 -4.9141 -1.269 0.3592 3.18055e-015 0 -1.59028e-015 -3.1477 -1.685 0.8462 -0 -3.18055e-015 -0 -0.8055 -1.585 0.7955 -0 -3.18055e-015 -0 8.367 -8.2066 0.5982 4.28792 -1.3583 5.21134 2.1923 -43.463 -0.4932 -3.80252 14.29 1.26395 0.7333 -45.8593 -2.6451 8.73992 -5.66304 -2.6463 -8.367 -8.2066 0.5982 -2.00279 1.76264 -9.79586 -2.1923 -43.463 -0.4931 6.36192 8.69704 -1.29943 -0.7333 -45.8593 -2.6451 -13.8481 -3.04633 6.98204 
-32.3389 90.1904 0.161947 1.72042 -0.00248261 89.9994 0 -1.186 -1.5018 -0.0432938 0.624498 -0.122326 0 9.964 0.2134 -0.0852613 1.24908 -0.244241 1.11022e-016 13.134 -3.2573 -0.0852614 1.24908 -0.244243 0 20.686 -1.6905 1.26787e-006 -1.31508 1.19576e-005 0 7.238 -0.1237 -5.61761e-008 -0.254867 1.67294e-006 1.7069 20.075 5.0056 -4.61972 0.222865 13.7671 13.6458 -0.047 -4.849 4.03964 -50.8375 20.167 28.3255 -0.9759 2.2888 -29.3244 12.8556 -27.0433 22.1583 -0.53 10.8316 -10.3152 1.57117 -4.11552 0.786 0.112 2.5817 1.82931e-006 1.80476e-006 1.82798e-006 0.3601 -0.878 4.2331 3.95249e-006 -4.21973e-006 9.99658e-006 1.8127 -1.216 2.2227 -3.18055e-015 5.1684e-015 6.36111e-015 0.9571 1.114 1.7695 -6.36111e-015 -3.57812e-015 -7.95139e-016 4.1246 0.487 4.1451 1.82931e-006 1.80476e-006 1.82798e-006 3.4052 -1.454 2.7682 3.95249e-006 -4.21973e-006 9.99658e-006 1.4531 -1.795 1.2713 3.18055e-015 8.34896e-015 3.18055e-015 5.6954 0.21 2.1184 1.82931e-006 1.80476e-006 1.82798e-006 3.9766 -1.54 2.3863 3.95249e-006 -4.21973e-006 9.99658e-006 1.4042 -1.926 1.125 3.18055e-015 8.34896e-015 3.18055e-015 2.0956 0.66 -0.3894 -6.36111e-015 -3.57812e-015 -7.95139e-016 5.0395 -0.09 2.4971 1.82931e-006 1.80476e-006 1.82798e-006 3.7921 -1.552 1.4806 3.95249e-006 -4.21973e-006 9.99658e-006 1.4655 -1.808 0.9609 3.18055e-015 8.34896e-015 3.18055e-015 4.9141 -1.269 0.3591 1.82931e-006 1.80476e-006 1.82798e-006 3.1477 -1.685 0.8462 3.95249e-006 -4.21973e-006 9.99658e-006 0.8055 -1.585 0.7955 3.18055e-015 8.34896e-015 3.18055e-015 -1.7069 20.075 5.0056 4.95625 0.111592 -7.66413 -13.6458 -0.047 -4.849 55.7642 24.0421 -12.8759 -28.3255 -0.9759 2.2888 27.4247 11.2015 25.6688 -22.1583 -0.53 10.8316 6.49223 2.60875 0.025417 -0.786 0.112 2.5817 3.18055e-015 -2.54444e-014 1.59028e-015 -0.3601 -0.878 4.2331 -1.51853e-006 -2.12702e-006 -1.81756e-006 -1.8127 -1.216 2.2227 -1.51853e-006 -2.12702e-006 -1.81756e-006 -0.9571 1.114 1.7695 3.18055e-015 -9.54166e-015 1.59028e-015 -4.1246 0.487 4.1451 6.36111e-015 -2.54444e-014 1.59028e-015 -3.4052 -1.454 2.7682 -1.51853e-006 -2.12702e-006 -1.81756e-006 -1.4531 -1.795 1.2713 -1.51853e-006 -2.12702e-006 -1.81756e-006 -5.6954 0.21 2.1184 6.36111e-015 -2.54444e-014 1.59028e-015 -3.9766 -1.54 2.3863 -1.51853e-006 -2.12702e-006 -1.81756e-006 -1.4042 -1.926 1.125 -1.51853e-006 -2.12702e-006 -1.81756e-006 -2.0956 0.66 -0.3894 3.18055e-015 -9.54166e-015 1.59028e-015 -5.0395 -0.09 2.4971 6.36111e-015 -2.54444e-014 1.59028e-015 -3.7921 -1.552 1.4806 -1.51853e-006 -2.12702e-006 -1.81756e-006 -1.4655 -1.808 0.9609 -1.51853e-006 -2.12702e-006 -1.81756e-006 -4.9141 -1.269 0.3592 6.36111e-015 -2.54444e-014 1.59028e-015 -3.1477 -1.685 0.8462 -1.51853e-006 -2.12702e-006 -1.81756e-006 -0.8055 -1.585 0.7955 -1.51853e-006 -2.12702e-006 -1.81756e-006 8.367 -8.2066 0.5982 3.46778 -0.138977 4.87257 2.1923 -43.463 -0.4932 -3.48194 10.5371 0.959767 0.7333 -45.8593 -2.6451 8.54097 -3.89941 -2.56348 -8.367 -8.2066 0.5982 -1.71826 0.552819 -9.15117 -2.1923 -43.463 -0.4931 5.9605 9.7371 -1.4123 -0.7333 -45.8593 -2.6451 -13.2573 -3.64571 6.42963 
